<?xml version="1.0" encoding="UTF-8"?>
<svg version="1.1" xmlns="http://www.w3.org/2000/svg" width="638" height="188">
<path d="M0 0 C4.29 0 8.58 0 13 0 C14.7772169 1.7772169 14.11988099 4.152472 14.12442017 6.51863098 C14.11902725 7.70545723 14.11902725 7.70545723 14.11352539 8.91625977 C14.11367142 9.74545929 14.11381744 10.57465881 14.1139679 11.4289856 C14.11326851 14.18315198 14.10547493 16.93725161 14.09765625 19.69140625 C14.09579216 21.59569766 14.09436822 23.49998955 14.09336853 25.40428162 C14.08954263 30.42667963 14.07971173 35.44904892 14.06866455 40.47143555 C14.05845198 45.5922812 14.05387124 50.71313148 14.04882812 55.83398438 C14.03808953 65.88933557 14.02101224 75.9446654 14 86 C9.38 86 4.76 86 0 86 C-0.33 84.02 -0.66 82.04 -1 80 C-1.804375 80.763125 -2.60875 81.52625 -3.4375 82.3125 C-8.17885992 86.24872333 -13.44425927 87.72617064 -19.5 88.375 C-28.07188968 87.45658325 -34.23272894 84.49962294 -40 78 C-46.35446099 69.08112746 -47.17879464 56.54824801 -45.53515625 46.0234375 C-43.74688083 37.66404354 -40.71302807 31.08102329 -34.0625 25.5625 C-27.61927898 22.27514234 -21.17479143 20.93549089 -14 22 C-8.85205151 23.89584505 -4.88519487 26.11480513 -1 30 C-0.67 20.1 -0.34 10.2 0 0 Z M-28 41 C-32.1320476 47.39800919 -31.63707777 54.59069826 -31 62 C-29.85928544 67.17300789 -27.00587984 70.59500214 -23 74 C-19.27200105 75.24266632 -15.87217006 75.52902513 -12 75 C-7.65377071 72.74330402 -4.47085383 70.23574942 -2 66 C0.10599042 58.67245603 0.99425952 51.17900777 -2 44 C-4.45052947 40.44467546 -7.08368302 36.95815849 -11 35 C-18.5105624 33.91529355 -23.17907671 35.01402025 -28 41 Z " fill="#0F1724" transform="translate(255,48)"/>
<path d="M0 0 C7.8534372 5.43699498 11.42980137 11.35916949 13.3125 20.625 C14.80459182 31.16289846 14.68165588 43.5264714 8.234375 52.44140625 C3.36763608 58.22762447 -1.29743863 62.06066325 -9 63 C-18.44402177 63.72646321 -23.8201685 60.98319292 -31 55 C-31.33 63.91 -31.66 72.82 -32 82 C-36.62 82 -41.24 82 -46 82 C-46 54.28 -46 26.56 -46 -2 C-41.38 -2 -36.76 -2 -32 -2 C-31.67 0.31 -31.34 2.62 -31 5 C-30.56429688 4.59007813 -30.12859375 4.18015625 -29.6796875 3.7578125 C-21.2259577 -3.89080018 -10.23078469 -5.79333591 0 0 Z M-30.4375 19.3125 C-32.11694172 27.33649934 -33.37443665 35.81464867 -28.66796875 43.046875 C-26.08361073 46.21353141 -23.83267305 48.44206229 -20 50 C-15.28749391 50.45604898 -12.99638275 50.49819138 -8.75 48.375 C-4.09820619 44.35754171 -1.24187466 40.12057962 -0.76171875 33.92578125 C-0.56710054 24.45094717 -1.40291551 19.1109537 -7.625 12 C-17.00298932 6.442673 -25.01877138 10.59541482 -30.4375 19.3125 Z " fill="#101725" transform="translate(390,73)"/>
<path d="M0 0 C4.29 0 8.58 0 13 0 C14.83219646 1.83219646 14.23901328 4.75713741 14.31640625 7.22265625 C14.35830078 8.48271484 14.40019531 9.74277344 14.44335938 11.04101562 C14.48317596 12.38150736 14.52288814 13.7220022 14.5625 15.0625 C14.60568042 16.40691523 14.64929456 17.7513166 14.69335938 19.09570312 C14.79985358 22.3970234 14.9018646 25.69842236 15 29 C15.90878906 28.20207031 16.81757813 27.40414062 17.75390625 26.58203125 C23.0686474 22.16217464 29.18148818 21.40188493 36 22 C42.42151566 23.15610175 46.2246784 25.59057382 50.4921875 30.4765625 C54.69115364 37.5038478 55.42892404 44.46105655 55.29296875 52.50390625 C55.28872391 53.4677977 55.28447906 54.43168915 55.28010559 55.42478943 C55.26345681 58.47099015 55.22583111 61.51650288 55.1875 64.5625 C55.1724353 66.64126641 55.15875004 68.72004331 55.14648438 70.79882812 C55.11359864 75.86614616 55.06191324 80.93295687 55 86 C50.38 86 45.76 86 41 86 C40.98598145 84.24526367 40.98598145 84.24526367 40.97167969 82.45507812 C40.93159938 78.086211 40.86579141 73.71803477 40.79248047 69.34960938 C40.76437503 67.46428346 40.74310894 65.57884201 40.72900391 63.69335938 C40.70742911 60.972059 40.66070651 58.25213269 40.609375 55.53125 C40.60814636 54.69758911 40.60691772 53.86392822 40.60565186 53.00500488 C40.46558435 47.32075358 39.34208081 42.69367985 36 38 C31.73755081 35.1583672 28.00032912 35.49596683 23 36 C19.5235054 37.33142346 18.38556547 38.39155989 16.40307617 41.52001953 C14.60491907 45.97989969 14.52343345 49.79144026 14.48828125 54.5546875 C14.47033005 55.45623566 14.45237885 56.35778381 14.43388367 57.28665161 C14.3799585 60.14938768 14.34594225 63.01195871 14.3125 65.875 C14.2793112 67.82293954 14.2448201 69.77085736 14.20898438 71.71875 C14.12424228 76.47904726 14.05734641 81.23929708 14 86 C9.38 86 4.76 86 0 86 C0 57.62 0 29.24 0 0 Z " fill="#111725" transform="translate(452,48)"/>
<path d="M0 0 C4.76653369 3.94941362 7.18758692 8.61035974 7.993927 14.71200562 C8.36790477 18.77010366 8.30839288 22.83044668 8.28515625 26.90234375 C8.2837413 27.84686905 8.28232635 28.79139435 8.28086853 29.76454163 C8.2753036 32.75972763 8.26275767 35.75483687 8.25 38.75 C8.24498046 40.78971246 8.24041835 42.82942609 8.23632812 44.86914062 C8.22534567 49.85028966 8.2081054 54.83138185 8.1875 59.8125 C3.2375 59.8125 -1.7125 59.8125 -6.8125 59.8125 C-7.1425 58.1625 -7.4725 56.5125 -7.8125 54.8125 C-8.92625 55.740625 -8.92625 55.740625 -10.0625 56.6875 C-16.00407655 61.27871824 -21.75835105 62.11225183 -29.18359375 61.671875 C-35.39179135 60.68200641 -39.79908728 57.61512097 -43.8125 52.8125 C-46.57942746 47.36877301 -46.46873185 41.7833997 -45.8125 35.8125 C-43.34343257 30.69147126 -40.01117235 27.14676929 -34.71484375 24.9375 C-25.6878197 22.03545827 -16.20877908 22.09487523 -6.8125 21.8125 C-7.13204043 18.33668272 -7.62207733 15.10335734 -8.8125 11.8125 C-13.0854652 8.82142436 -16.91918183 8.29088773 -21.94921875 9.16015625 C-25.71377544 10.4781457 -28.07077981 13.32905962 -29.8125 16.8125 C-34.4325 16.8125 -39.0525 16.8125 -43.8125 16.8125 C-42.75965234 9.32558328 -40.60457414 4.78549295 -34.8125 -0.1875 C-23.87244404 -6.90018827 -11.16963779 -4.71606929 0 0 Z M-30.375 37.0625 C-32.02805794 39.74847649 -32.02805794 39.74847649 -31.9375 42.875 C-30.39262089 46.90885102 -28.67241414 47.95402282 -24.8125 49.8125 C-19.58354039 50.46611995 -16.21700343 49.68500224 -11.8125 46.8125 C-8.07292567 43.34972662 -8.07292567 43.34972662 -6.50390625 38.64453125 C-6.46733362 36.19757333 -6.46733362 36.19757333 -6.8125 32.8125 C-19.41226647 31.97384109 -19.41226647 31.97384109 -30.375 37.0625 Z " fill="#6A707F" transform="translate(561.8125,74.1875)"/>
<path d="M0 0 C5.38984756 4.12090909 8.69601958 10.47157833 10.3125 16.9375 C10.3125 21.8875 10.3125 26.8375 10.3125 31.9375 C-3.8775 31.9375 -18.0675 31.9375 -32.6875 31.9375 C-29.93013629 41.88447011 -29.93013629 41.88447011 -23.0625 47.1875 C-17.42633521 48.43998106 -10.71928389 47.98706599 -5.6875 44.9375 C-5.0275 43.2875 -4.3675 41.6375 -3.6875 39.9375 C0.9325 39.9375 5.5525 39.9375 10.3125 39.9375 C9.18879961 46.92941357 6.73427385 51.3064015 1.3125 55.9375 C-6.40345577 60.58582752 -15.35808462 62.2700085 -24.2109375 60.40625 C-31.97121087 58.26227057 -38.28354988 54.93374182 -42.6875 47.9375 C-48.0279758 38.14372842 -48.16697118 26.37862724 -46.02734375 15.6171875 C-43.48860871 7.72622751 -38.92451141 1.37125362 -31.5 -2.5 C-21.12180471 -7.21351843 -9.60034062 -5.92406139 0 0 Z M-28.9375 12.25 C-31.09366376 15.31374874 -31.09366376 15.31374874 -32.6875 20.9375 C-23.1175 20.9375 -13.5475 20.9375 -3.6875 20.9375 C-4.7146892 14.77436481 -5.44183819 13.18316181 -9.6875 8.9375 C-16.67681878 4.99480736 -23.45800861 6.61830052 -28.9375 12.25 Z " fill="#101624" transform="translate(324.6875,75.0625)"/>
<path d="M0 0 C1.44197754 0.78213867 1.44197754 0.78213867 2.91308594 1.58007812 C3.96753906 2.15113281 5.02199219 2.7221875 6.10839844 3.31054688 C7.19378906 3.90480469 8.27917969 4.4990625 9.39746094 5.11132812 C11.04875 6.00271484 11.04875 6.00271484 12.73339844 6.91210938 C20.88402596 11.34789315 20.88402596 11.34789315 23.14746094 13.61132812 C23.7141835 18.52531492 23.77476925 23.44271886 23.84765625 28.38623047 C23.88072689 30.02971136 23.93525387 31.67290723 24.01171875 33.31494141 C24.63950998 46.87250252 24.63950998 46.87250252 21.22851562 50.84765625 C18.60147847 52.4298608 16.00816915 53.51362593 13.14746094 54.61132812 C11.41660637 55.60252347 9.70250262 56.6235709 8.00683594 57.67382812 C6.30483657 58.65495008 4.60171081 59.63412063 2.89746094 60.61132812 C2.03894531 61.12566406 1.18042969 61.64 0.29589844 62.16992188 C-0.54199219 62.64558594 -1.37988281 63.12125 -2.24316406 63.61132812 C-2.98598633 64.04445313 -3.72880859 64.47757812 -4.49414062 64.92382812 C-11.07326261 66.8417171 -19.41083543 60.32322435 -25.04003906 57.29882812 C-26.13251953 56.72970703 -27.225 56.16058594 -28.35058594 55.57421875 C-29.39666016 55.01283203 -30.44273438 54.45144531 -31.52050781 53.87304688 C-32.94786255 53.11447388 -32.94786255 53.11447388 -34.40405273 52.34057617 C-37.27438816 50.31339641 -38.44200214 48.8259933 -39.85253906 45.61132812 C-40.40960637 41.31025029 -40.36789615 37.02610656 -40.35351562 32.69140625 C-40.35254146 30.61643402 -40.39423494 28.54514375 -40.43847656 26.47070312 C-40.44105469 25.15585937 -40.44363281 23.84101562 -40.44628906 22.48632812 C-40.45692383 20.68808594 -40.45692383 20.68808594 -40.46777344 18.85351562 C-39.66485392 14.62225721 -38.16802273 13.29654163 -34.85253906 10.61132812 C-31.25150352 8.23779953 -27.49027362 6.19245879 -23.6965332 4.14282227 C-21.9113648 3.17182961 -20.14532172 2.17087123 -18.37792969 1.16796875 C-17.24677734 0.55244141 -16.115625 -0.06308594 -14.95019531 -0.69726562 C-13.41117554 -1.54502563 -13.41117554 -1.54502563 -11.84106445 -2.40991211 C-7.10916988 -3.95963561 -4.29351742 -2.09016836 0 0 Z M-14.18066406 11.79882812 C-14.90157227 12.20488281 -15.62248047 12.6109375 -16.36523438 13.02929688 C-17.7202002 13.81240234 -17.7202002 13.81240234 -19.10253906 14.61132812 C-21.99003906 16.26132812 -24.87753906 17.91132812 -27.85253906 19.61132812 C-27.85253906 27.20132813 -27.85253906 34.79132813 -27.85253906 42.61132812 C-23.58316406 45.11726563 -23.58316406 45.11726563 -19.22753906 47.67382812 C-18.34243652 48.20500244 -17.45733398 48.73617676 -16.54541016 49.28344727 C-13.16721128 51.21129405 -10.72111983 52.58473892 -6.79003906 52.70507812 C-2.76607026 51.20679187 0.83133508 49.22731613 4.52246094 47.04882812 C7.03871094 45.58445313 9.55496094 44.12007812 12.14746094 42.61132812 C12.14746094 35.02132812 12.14746094 27.43132813 12.14746094 19.61132812 C9.25996094 17.96132813 6.37246094 16.31132813 3.39746094 14.61132812 C2.49415039 14.08925781 1.59083984 13.5671875 0.66015625 13.02929688 C-0.42120605 12.42021484 -0.42120605 12.42021484 -1.52441406 11.79882812 C-2.62414551 11.17041016 -2.62414551 11.17041016 -3.74609375 10.52929688 C-7.85117649 8.74034102 -10.54191806 9.7195447 -14.18066406 11.79882812 Z " fill="#000000" transform="translate(101.8525390625,30.388671875)"/>
<path d="M0 0 C1.27061279 0.66068481 1.27061279 0.66068481 2.56689453 1.3347168 C5.47901403 2.85875789 8.36541955 4.42451675 11.25 6 C12.24257812 6.53367187 13.23515625 7.06734375 14.2578125 7.6171875 C15.20914063 8.13539062 16.16046875 8.65359375 17.140625 9.1875 C18.00204102 9.65542969 18.86345703 10.12335938 19.75097656 10.60546875 C23.63709322 13.01509731 23.63709322 13.01509731 25 15 C25.32249094 17.53924116 25.46801216 19.82949811 25.46875 22.37109375 C25.48017029 23.44920067 25.48017029 23.44920067 25.49182129 24.54908752 C25.50261724 26.06792734 25.5054774 27.58684137 25.50097656 29.10571289 C25.50000458 31.42655622 25.54161342 33.74408772 25.5859375 36.06445312 C25.5911451 37.54165978 25.59383268 39.01887792 25.59375 40.49609375 C25.6183429 41.53376137 25.6183429 41.53376137 25.64343262 42.59239197 C25.59306629 46.1143554 25.31049411 47.67738734 22.83569336 50.2487793 C21.89991455 50.82668213 20.96413574 51.40458496 20 52 C19.05648682 52.58442871 18.11297363 53.16885742 17.14086914 53.77099609 C14.38344317 55.3269118 11.62135822 56.87297848 8.84399414 58.39306641 C7.65312931 59.04945374 6.46721685 59.71490463 5.28637695 60.38916016 C3.56789117 61.37026711 1.83289286 62.32227076 0.09765625 63.2734375 C-0.92835693 63.84497559 -1.95437012 64.41651367 -3.01147461 65.00537109 C-7.79624884 66.59782026 -10.63584787 64.68224482 -14.96020508 62.51953125 C-18.24754912 60.68527145 -21.53401617 58.85006793 -24.8125 57 C-25.98092734 56.35121577 -27.1495455 55.70277509 -28.31835938 55.0546875 C-29.41599609 54.43851563 -30.51363281 53.82234375 -31.64453125 53.1875 C-32.64846924 52.62417969 -33.65240723 52.06085938 -34.68676758 51.48046875 C-37 50 -37 50 -38 48 C-41.39056263 19.78706355 -41.39056263 19.78706355 -36.55273438 11.52978516 C-32.76178327 7.92197662 -28.2403459 6.28808087 -23.30078125 4.77832031 C-21.00061185 4.00020698 -19.09001447 3.03230711 -17 1.8046875 C-16.38592285 1.44721436 -15.7718457 1.08974121 -15.13916016 0.72143555 C-14.5569873 0.38023682 -13.97481445 0.03903809 -13.375 -0.3125 C-7.87466689 -3.3822985 -5.28812504 -2.949171 0 0 Z M-27 20 C-27 27.59 -27 35.18 -27 43 C-16.85513701 50.67609805 -16.85513701 50.67609805 -4.67724609 53.78417969 C0.16763594 52.12820766 3.97716227 49.08914206 8 46 C9.97686969 44.95501854 11.97027986 43.93820901 14 43 C14.23303424 39.43860935 14.37461781 35.87917554 14.5 32.3125 C14.56703125 31.30509766 14.6340625 30.29769531 14.703125 29.25976562 C14.78085647 26.31568624 14.74044498 23.85349125 14 21 C11.66230875 18.58947687 9.00302214 17.4249811 6 16 C5.03578125 15.2059375 4.0715625 14.411875 3.078125 13.59375 C-8.41981462 5.08146321 -16.43834072 13.17443788 -27 20 Z " fill="#010101" transform="translate(68,85)"/>
<path d="M0 0 C5.64954156 2.19244806 10.79506772 5.28858653 16.0637207 8.26171875 C17.23214804 8.91050298 18.4007662 9.55894366 19.56958008 10.20703125 C20.6672168 10.82320312 21.76485352 11.439375 22.89575195 12.07421875 C23.89968994 12.63753906 24.90362793 13.20085937 25.93798828 13.78125 C28.2512207 15.26171875 28.2512207 15.26171875 29.2512207 17.26171875 C29.33780639 19.81534479 29.36684586 22.34126295 29.34887695 24.89453125 C29.34746201 25.64636688 29.34604706 26.39820251 29.34458923 27.17282104 C29.33898535 29.57749385 29.32643227 31.98207402 29.3137207 34.38671875 C29.3087062 36.01562366 29.30414321 37.64453002 29.30004883 39.2734375 C29.28901467 43.26956702 29.27174749 47.26562717 29.2512207 51.26171875 C25.9622275 53.16221758 22.66953912 55.05622642 19.3762207 56.94921875 C18.4584082 57.47966797 17.5405957 58.01011719 16.5949707 58.55664062 C14.74239229 59.61991626 12.88324814 60.67183127 11.01782227 61.71240234 C9.18556111 62.73848153 7.36912414 63.79338679 5.57055664 64.87744141 C-0.78268132 68.49221473 -0.78268132 68.49221473 -5.1706543 67.4453125 C-6.37840023 66.74268188 -7.56928184 66.01080204 -8.7487793 65.26171875 C-10.54208768 64.32904746 -12.3393317 63.40392344 -14.1394043 62.484375 C-16.09438149 61.43443105 -18.04746984 60.38096352 -19.9987793 59.32421875 C-21.48764648 58.5362793 -21.48764648 58.5362793 -23.0065918 57.73242188 C-23.95791992 57.21744141 -24.90924805 56.70246094 -25.8894043 56.171875 C-27.18152832 55.47783569 -27.18152832 55.47783569 -28.49975586 54.76977539 C-31.01460985 53.08346915 -32.30811283 51.93154347 -33.7487793 49.26171875 C-34.32547005 44.69110927 -34.26390998 40.1099253 -34.24975586 35.5078125 C-34.24878213 33.2682289 -34.29044656 31.03205899 -34.3347168 28.79296875 C-34.33992335 27.36589254 -34.342612 25.93880446 -34.3425293 24.51171875 C-34.34961914 23.2175 -34.35670898 21.92328125 -34.36401367 20.58984375 C-33.7487793 17.26171875 -33.7487793 17.26171875 -31.56591797 15.00854492 C-28.77053419 13.27520833 -25.98107415 11.61477078 -23.08081055 10.0625 C-22.02313477 9.49337891 -20.96545898 8.92425781 -19.87573242 8.33789062 C-18.78196289 7.75587891 -17.68819336 7.17386719 -16.5612793 6.57421875 C-15.4559082 5.98060547 -14.35053711 5.38699219 -13.21166992 4.77539062 C-2.87118418 -0.77115738 -2.87118418 -0.77115738 0 0 Z M-7.22143555 13.66796875 C-8.12055664 14.16425781 -9.01967773 14.66054687 -9.94604492 15.171875 C-10.89157227 15.69652344 -11.83709961 16.22117187 -12.8112793 16.76171875 C-14.23537109 17.54869141 -14.23537109 17.54869141 -15.68823242 18.3515625 C-18.04279116 19.65307738 -20.39624746 20.95654482 -22.7487793 22.26171875 C-22.98181354 25.8231094 -23.12339711 29.38254321 -23.2487793 32.94921875 C-23.31581055 33.95662109 -23.3828418 34.96402344 -23.4519043 36.00195312 C-23.52965271 38.94667412 -23.48866459 41.40747112 -22.7487793 44.26171875 C-20.41713683 46.71644943 -17.81896839 47.9132866 -14.7487793 49.26171875 C-13.27538086 50.17050781 -13.27538086 50.17050781 -11.7722168 51.09765625 C-10.89823242 51.60554688 -10.02424805 52.1134375 -9.1237793 52.63671875 C-8.24463867 53.16007812 -7.36549805 53.6834375 -6.4597168 54.22265625 C-2.94541223 55.56963754 -1.35770226 55.33643478 2.2512207 54.26171875 C5.13777886 52.89233499 7.87604172 51.3223636 10.6262207 49.69921875 C13.1424707 48.23484375 15.6587207 46.77046875 18.2512207 45.26171875 C18.2512207 37.67171875 18.2512207 30.08171875 18.2512207 22.26171875 C14.9718457 20.44671875 11.6924707 18.63171875 8.3137207 16.76171875 C7.27868408 16.18744141 6.24364746 15.61316406 5.17724609 15.02148438 C4.36763428 14.57482422 3.55802246 14.12816406 2.72387695 13.66796875 C1.89122314 13.20712891 1.05856934 12.74628906 0.20068359 12.27148438 C-3.05063303 10.58739601 -4.073905 11.92593926 -7.22143555 13.66796875 Z " fill="#010101" transform="translate(128.748779296875,82.73828125)"/>
<path d="M0 0 C4.62 0 9.24 0 14 0 C14 5.28 14 10.56 14 16 C17.96 16 21.92 16 26 16 C26 19.96 26 23.92 26 28 C22.04 28 18.08 28 14 28 C14.11874946 32.73241403 14.24302895 37.46463941 14.37231445 42.19677734 C14.41548205 43.80481067 14.45716901 45.41288448 14.49731445 47.02099609 C14.55546006 49.33964205 14.61902391 51.65808761 14.68359375 53.9765625 C14.70030624 54.68930328 14.71701874 55.40204407 14.73423767 56.13638306 C14.85260564 60.17344506 15.23768071 64.03376939 16 68 C19.3 68.33 22.6 68.66 26 69 C26 72.63 26 76.26 26 80 C19.83478604 82.05507132 14.04777619 81.23621464 8.05078125 79.05078125 C4.63003248 77.29805474 3.09828098 75.21299275 1 72 C0.11811183 69.24041632 -0.12266269 66.7614115 -0.11352539 63.87402344 C-0.11344986 63.07349548 -0.11337433 62.27296753 -0.11329651 61.44818115 C-0.10813522 60.59387512 -0.10297394 59.73956909 -0.09765625 58.859375 C-0.0962413 57.97719299 -0.09482635 57.09501099 -0.09336853 56.18609619 C-0.08778001 53.37402935 -0.07522961 50.5620427 -0.0625 47.75 C-0.05748352 45.84114698 -0.05292087 43.93229272 -0.04882812 42.0234375 C-0.03781434 37.34892753 -0.02055758 32.67447735 0 28 C-2.97 28 -5.94 28 -9 28 C-9 24.04 -9 20.08 -9 16 C-6.03 16 -3.06 16 0 16 C0 10.72 0 5.44 0 0 Z " fill="#101725" transform="translate(416,55)"/>
<path d="M0 0 C4.29 0 8.58 0 13 0 C14 1 14 1 14.12025452 3.47401428 C14.1169236 5.12281837 14.1169236 5.12281837 14.11352539 6.80493164 C14.11344986 8.04614273 14.11337433 9.28735382 14.11329651 10.56617737 C14.10818911 11.9308374 14.1029731 13.29549702 14.09765625 14.66015625 C14.095792 16.04878183 14.09436813 17.43740807 14.09336853 18.82603455 C14.08954387 22.48721115 14.07971403 26.1483483 14.06866455 29.80950928 C14.05844932 33.54292263 14.05387067 37.27634234 14.04882812 41.00976562 C14.0380917 48.33986385 14.02049534 55.66992138 14 63 C9.38 63 4.76 63 0 63 C0 42.21 0 21.42 0 0 Z " fill="#69707E" transform="translate(582,71)"/>
<path d="M0 0 C2.59191186 1.69814915 2.96408796 2.8820033 3.875 5.875 C4.0235372 9.58842999 3.18476995 11.05896353 1 14 C0 15 0 15 -3.8125 15.25 C-6.56533701 15.2055994 -7.91850957 15.03970047 -10.4375 13.8125 C-12.44619548 11.48241325 -12.85384384 10.06927932 -13 7 C-12.20817165 3.67432093 -11.38570366 2.32141972 -8.75 0.125 C-5.30998383 -1.28227934 -3.53068164 -1.07455528 0 0 Z " fill="#686F7B" transform="translate(593,48)"/>
<path d="M0 0 C3 1 3 1 4.125 2.625 C6.42485061 8.86745166 6.13508262 15.53139221 6.09765625 22.08984375 C6.0962413 23.03436905 6.09482635 23.97889435 6.09336853 24.95204163 C6.0878036 27.94722763 6.07525767 30.94233687 6.0625 33.9375 C6.05748046 35.97721246 6.05291835 38.01692609 6.04882812 40.05664062 C6.03784567 45.03778966 6.0206054 50.01888185 6 55 C1.05 55 -3.9 55 -9 55 C-9 53.02 -9 51.04 -9 49 C-8.01 49 -7.02 49 -6 49 C-4 51 -4 51 -4 53 C-1.36 53 1.28 53 4 53 C3.93288663 46.41597705 3.84303542 39.83254261 3.73754883 33.24902344 C3.70434334 31.01048789 3.67629784 28.77186951 3.65356445 26.53320312 C3.61993855 23.31083961 3.56761728 20.08923226 3.51171875 16.8671875 C3.50532883 15.87008759 3.4989389 14.87298767 3.49235535 13.84567261 C3.37933157 8.47533244 2.9562912 4.6736245 0 0 Z " fill="#616772" transform="translate(564,79)"/>
<path d="M0 0 C0.33 0 0.66 0 1 0 C1 16.83 1 33.66 1 51 C1.66 51.33 2.32 51.66 3 52 C4 53 4 53 4 55 C4.99 55.33 5.98 55.66 7 56 C4.69 56 2.38 56 0 56 C0 37.52 0 19.04 0 0 Z " fill="#636873" transform="translate(582,78)"/>
<path d="M0 0 C-0.33 0.99 -0.66 1.98 -1 3 C-1.66 3 -2.32 3 -3 3 C-3 4.65 -3 6.3 -3 8 C-3.268125 7.4225 -3.53625 6.845 -3.8125 6.25 C-5.01719859 3.9674132 -6.40798115 2.0262058 -8 0 C-5.13822943 -1.43088528 -3.06624227 -0.59991697 0 0 Z " fill="#656A75" transform="translate(559,84)"/>
<path d="M0 0 C0.66 0.33 1.32 0.66 2 1 C-1.90456127 4.53269829 -4.80177328 6.63855967 -10 8 C-5.55882353 2.20179739 -5.55882353 2.20179739 -2.75 1.1875 C-1.88375 1.0946875 -1.88375 1.0946875 -1 1 C-0.67 0.67 -0.34 0.34 0 0 Z " fill="#656A73" transform="translate(553,127)"/>
<path d="M0 0 C0.66 1.32 1.32 2.64 2 4 C1.34 4.66 0.68 5.32 0 6 C-3.125 5.625 -3.125 5.625 -6 5 C-2.25 1.125 -2.25 1.125 0 0 Z " fill="#5D6573" transform="translate(539,130)"/>
<path d="M0 0 C0.66 0.66 1.32 1.32 2 2 C1.34 2 0.68 2 0 2 C0 1.34 0 0.68 0 0 Z M-2 2 C-1.34 2.33 -0.68 2.66 0 3 C-2.31 4.65 -4.62 6.3 -7 8 C-8.32 7.34 -9.64 6.68 -11 6 C-9.54618103 5.30300448 -8.08677047 4.61766134 -6.625 3.9375 C-5.40683594 3.36322266 -5.40683594 3.36322266 -4.1640625 2.77734375 C-3.44992187 2.52082031 -2.73578125 2.26429687 -2 2 Z " fill="#0B0F19" transform="translate(319,118)"/>
<path d="M0 0 C1.9375 0.625 1.9375 0.625 4 2 C4.75 5.125 4.75 5.125 5 8 C2.69 6.02 0.38 4.04 -2 2 C-1.34 1.34 -0.68 0.68 0 0 Z " fill="#0D111C" transform="translate(315,82)"/>
</svg>
