<?xml version="1.0" encoding="UTF-8"?>
<svg version="1.1" xmlns="http://www.w3.org/2000/svg" width="638" height="198">
<path d="M0 0 C1.44197754 0.78213867 1.44197754 0.78213867 2.91308594 1.58007812 C3.96753906 2.15113281 5.02199219 2.7221875 6.10839844 3.31054688 C7.73648438 4.20193359 7.73648438 4.20193359 9.39746094 5.11132812 C11.04875 6.00271484 11.04875 6.00271484 12.73339844 6.91210938 C20.88402596 11.34789315 20.88402596 11.34789315 23.14746094 13.61132812 C23.31989712 16.20257708 23.37605523 18.69652643 23.35058594 21.28710938 C23.36113725 22.85287289 23.37289418 24.41862865 23.38574219 25.984375 C23.39604725 28.45342001 23.39748077 30.92138523 23.37744141 33.39038086 C23.36264355 35.77355252 23.3851674 38.15410563 23.41308594 40.53710938 C23.39003387 41.63736198 23.39003387 41.63736198 23.36651611 42.75984192 C23.44400631 46.86060277 23.94681497 48.4018563 26.81713867 51.3984375 C29.88519114 53.43705839 32.92963685 55.33580739 36.16699219 57.09179688 C37.27107422 57.69830078 38.37515625 58.30480469 39.51269531 58.9296875 C40.65029297 59.54650391 41.78789062 60.16332031 42.95996094 60.79882812 C45.24003324 62.03730751 47.51752919 63.28054591 49.79199219 64.52929688 C50.79593018 65.07352295 51.79986816 65.61774902 52.83422852 66.1784668 C55.14746094 67.61132812 55.14746094 67.61132812 56.14746094 69.61132812 C56.49288591 73.99619756 56.61549734 78.39156416 56.76000977 82.78710938 C56.83444793 84.97127553 56.92517007 87.15437852 57.01660156 89.33789062 C57.06513289 90.7284809 57.11269071 92.11910557 57.15917969 93.50976562 C57.20518311 94.77481934 57.25118652 96.03987305 57.29858398 97.34326172 C57.15373179 100.47571966 56.89567696 102.05881263 55.14746094 104.61132812 C52.94042969 106.27929688 52.94042969 106.27929688 50.33496094 107.79882812 C49.48289062 108.30800781 48.63082031 108.8171875 47.75292969 109.34179688 C45.18012853 110.59541063 42.96605959 111.1913215 40.14746094 111.61132812 C40.14746094 112.27132812 40.14746094 112.93132812 40.14746094 113.61132812 C37.17746094 114.60132813 34.20746094 115.59132813 31.14746094 116.61132812 C31.14746094 117.27132812 31.14746094 117.93132812 31.14746094 118.61132812 C28.49216454 119.93897632 27.06857981 120.51213903 24.14746094 120.61132812 C19.87029217 119.12032099 16.06072525 116.87232529 12.14746094 114.61132812 C10.89932223 113.90461041 9.6506088 113.19890692 8.40136719 112.49414062 C5.98513546 111.12580421 3.57874487 109.74222525 1.17871094 108.34570312 C-1.13955913 107.01927025 -3.44676556 105.76704285 -5.85253906 104.61132812 C-5.85253906 103.95132813 -5.85253906 103.29132813 -5.85253906 102.61132812 C-7.50253906 102.94132812 -9.15253906 103.27132812 -10.85253906 103.61132812 C-10.85253906 104.27132812 -10.85253906 104.93132812 -10.85253906 105.61132812 C-14.31753906 106.60132813 -14.31753906 106.60132813 -17.85253906 107.61132812 C-17.85253906 108.27132812 -17.85253906 108.93132812 -17.85253906 109.61132812 C-19.11945414 110.28541121 -20.39124655 110.95033309 -21.66503906 111.61132812 C-22.37273437 111.98257813 -23.08042969 112.35382813 -23.80957031 112.73632812 C-25.85253906 113.61132812 -25.85253906 113.61132812 -28.85253906 113.61132812 C-28.85253906 114.27132812 -28.85253906 114.93132812 -28.85253906 115.61132812 C-38.5399295 120.74805829 -38.5399295 120.74805829 -42.85253906 120.29882812 C-43.84253906 119.74195313 -44.83253906 119.18507813 -45.85253906 118.61132812 C-46.65046875 118.18980469 -47.44839844 117.76828125 -48.27050781 117.33398438 C-51.15509993 115.80014625 -54.00310303 114.20942453 -56.85253906 112.61132812 C-58.83015915 111.52517409 -60.80927789 110.44174331 -62.79003906 109.36132812 C-63.6653125 108.88179688 -64.54058594 108.40226562 -65.44238281 107.90820312 C-67.55827763 106.76966653 -69.70344131 105.685877 -71.85253906 104.61132812 C-71.85253906 92.40132812 -71.85253906 80.19132812 -71.85253906 67.61132812 C-67.23253906 65.30132812 -62.61253906 62.99132812 -57.85253906 60.61132812 C-55.27417375 59.1812321 -52.70698452 57.73020083 -50.16503906 56.23632812 C-44.16103385 52.71415972 -44.16103385 52.71415972 -40.85253906 51.61132812 C-39.98290743 47.19462551 -39.79110105 43.13351104 -39.93066406 38.63867188 C-39.95644531 37.32705078 -39.98222656 36.01542969 -40.00878906 34.6640625 C-40.05207681 32.60076164 -40.10288757 30.53883332 -40.17480469 28.47631836 C-40.24161021 26.4685737 -40.27404802 24.45977886 -40.30566406 22.45117188 C-40.33821289 21.2587085 -40.37076172 20.06624512 -40.40429688 18.83764648 C-39.67694268 14.58455549 -38.1742537 13.29584147 -34.85253906 10.61132812 C-31.25150352 8.23779953 -27.49027362 6.19245879 -23.6965332 4.14282227 C-21.9113648 3.17182961 -20.14532172 2.17087123 -18.37792969 1.16796875 C-17.24677734 0.55244141 -16.115625 -0.06308594 -14.95019531 -0.69726562 C-13.92418213 -1.26243896 -12.89816895 -1.8276123 -11.84106445 -2.40991211 C-7.10916988 -3.95963561 -4.29351742 -2.09016836 0 0 Z M-13.47753906 11.79882812 C-14.6725 12.40791016 -14.6725 12.40791016 -15.89160156 13.02929688 C-19.90539049 15.17386747 -23.87443336 17.4012694 -27.85253906 19.61132812 C-27.85253906 27.20132813 -27.85253906 34.79132813 -27.85253906 42.61132812 C-25.33628906 44.07570312 -22.82003906 45.54007813 -20.22753906 47.04882812 C-19.44685059 47.5095874 -18.66616211 47.97034668 -17.86181641 48.44506836 C-12.20784318 51.72695344 -12.20784318 51.72695344 -5.85253906 52.61132812 C-2.53803636 51.26572886 0.45966844 49.51189393 3.52246094 47.67382812 C6.36871094 46.00320312 9.21496094 44.33257812 12.14746094 42.61132812 C12.14746094 35.02132812 12.14746094 27.43132813 12.14746094 19.61132812 C9.23933594 17.96132813 6.33121094 16.31132813 3.33496094 14.61132812 C2.42254639 14.08925781 1.51013184 13.5671875 0.57006836 13.02929688 C-0.1533374 12.62324219 -0.87674316 12.2171875 -1.62207031 11.79882812 C-2.72965698 11.17041016 -2.72965698 11.17041016 -3.85961914 10.52929688 C-7.68372459 8.76785666 -9.97191263 9.99037004 -13.47753906 11.79882812 Z M11.14746094 54.61132812 C10.81746094 55.60132813 10.48746094 56.59132812 10.14746094 57.61132812 C11.13746094 57.28132813 12.12746094 56.95132813 13.14746094 56.61132812 C12.48746094 55.95132813 11.82746094 55.29132813 11.14746094 54.61132812 Z M-49.10253906 68.04882812 C-49.75222656 68.38720703 -50.40191406 68.72558594 -51.07128906 69.07421875 C-52.670684 69.90919699 -54.26239766 70.75885927 -55.85253906 71.61132812 C-55.85253906 72.27132812 -55.85253906 72.93132812 -55.85253906 73.61132812 C-57.50253906 73.94132812 -59.15253906 74.27132812 -60.85253906 74.61132812 C-61.11529503 78.15157172 -61.27414236 81.68930945 -61.41503906 85.23632812 C-61.49044922 86.23535156 -61.56585938 87.234375 -61.64355469 88.26367188 C-61.73345961 91.28048147 -61.67596018 93.70324711 -60.85253906 96.61132812 C-58.21252525 99.36138632 -55.23260056 100.91021694 -51.85253906 102.61132812 C-50.32693359 103.67287109 -50.32693359 103.67287109 -48.77050781 104.75585938 C-45.75763229 106.59634271 -43.31350415 107.85762609 -39.85253906 108.61132812 C-35.19870498 107.12348526 -31.73533781 104.51326279 -27.85253906 101.61132812 C-27.15692871 101.27834717 -26.46131836 100.94536621 -25.74462891 100.60229492 C-23.43151047 99.45190539 -21.69055988 98.43375859 -19.85253906 96.61132812 C-18.71885812 93.05990673 -18.82062221 89.74649791 -18.97753906 86.04882812 C-18.96335938 85.10330078 -18.94917969 84.15777344 -18.93457031 83.18359375 C-18.98372237 80.50858732 -19.15012977 78.19321093 -19.85253906 75.61132812 C-22.426769 72.99932608 -22.426769 72.99932608 -25.85253906 71.61132812 C-26.86574219 71.06089844 -27.87894531 70.51046875 -28.92285156 69.94335938 C-29.93089844 69.44191406 -30.93894531 68.94046875 -31.97753906 68.42382812 C-32.99074219 67.91464844 -34.00394531 67.40546875 -35.04785156 66.88085938 C-35.97339844 66.46191406 -36.89894531 66.04296875 -37.85253906 65.61132812 C-38.48417969 65.31742187 -39.11582031 65.02351563 -39.76660156 64.72070312 C-43.28607455 64.53616147 -46.08886523 66.42254682 -49.10253906 68.04882812 Z M-9.85253906 64.61132812 C-9.85253906 65.27132812 -9.85253906 65.93132812 -9.85253906 66.61132812 C-10.84253906 67.10632813 -10.84253906 67.10632813 -11.85253906 67.61132812 C-10.01969463 68.73648897 -10.01969463 68.73648897 -7.85253906 69.61132812 C-6.86253906 69.28132813 -5.87253906 68.95132813 -4.85253906 68.61132812 C-4.85253906 67.62132813 -4.85253906 66.63132812 -4.85253906 65.61132812 C-6.50253906 65.28132813 -8.15253906 64.95132813 -9.85253906 64.61132812 Z M8.88989258 72.50048828 C7.14746094 73.61132812 7.14746094 73.61132812 4.14746094 74.61132812 C3.91442669 78.17271878 3.77284313 81.73215258 3.64746094 85.29882812 C3.58042969 86.30623047 3.51339844 87.31363281 3.44433594 88.3515625 C3.36658753 91.29628349 3.40757564 93.7570805 4.14746094 96.61132812 C6.4791034 99.06605881 9.07727185 100.26289598 12.14746094 101.61132812 C13.62085937 102.52011719 13.62085937 102.52011719 15.12402344 103.44726562 C15.99800781 103.95515625 16.87199219 104.46304688 17.77246094 104.98632812 C18.65160156 105.5096875 19.53074219 106.03304687 20.43652344 106.57226562 C23.91515857 107.90557534 25.57927313 107.65316742 29.14746094 106.61132812 C31.65523831 105.36565268 34.0053707 104.10553468 36.39746094 102.67382812 C37.02136719 102.31353516 37.64527344 101.95324219 38.28808594 101.58203125 C40.83737695 100.09036636 43.05076323 98.70802583 45.14746094 96.61132812 C45.4251151 94.28315608 45.4251151 94.28315608 45.34277344 91.60351562 C45.33310547 90.12431641 45.33310547 90.12431641 45.32324219 88.61523438 C45.30648437 87.58269531 45.28972656 86.55015625 45.27246094 85.48632812 C45.2634375 84.44605469 45.25441406 83.40578125 45.24511719 82.33398438 C45.22149841 79.7595372 45.18856243 77.185546 45.14746094 74.61132812 C42.50946116 73.15190239 39.8676156 71.71267149 37.19433594 70.31835938 C34.14746094 68.61132812 34.14746094 68.61132812 31.78808594 66.74804688 C23.31104821 60.6241179 16.25666905 67.31420262 8.88989258 72.50048828 Z M-7.85253906 77.61132812 C-6.85253906 81.61132812 -6.85253906 81.61132812 -6.85253906 81.61132812 Z " fill="#FDFDFD" transform="translate(105.8525390625,36.388671875)"/>
<path d="M0 0 C2.31243792 -0.02685412 4.6249627 -0.04632841 6.9375 -0.0625 C8.22527344 -0.07410156 9.51304687 -0.08570313 10.83984375 -0.09765625 C14 0 14 0 15 1 C15.09511266 3.64738089 15.12555635 6.26859001 15.11352539 8.91625977 C15.11367142 9.74545929 15.11381744 10.57465881 15.1139679 11.4289856 C15.11326851 14.18315198 15.10547493 16.93725161 15.09765625 19.69140625 C15.09579216 21.59569766 15.09436822 23.49998955 15.09336853 25.40428162 C15.08954263 30.42667963 15.07971173 35.44904892 15.06866455 40.47143555 C15.05845198 45.5922812 15.05387124 50.71313148 15.04882812 55.83398438 C15.03808953 65.88933557 15.02101224 75.9446654 15 86 C10.38 86 5.76 86 1 86 C0.34 84.35 -0.32 82.7 -1 81 C-1.59167969 81.42152344 -2.18335938 81.84304687 -2.79296875 82.27734375 C-3.58316406 82.82519531 -4.37335938 83.37304688 -5.1875 83.9375 C-5.96480469 84.48277344 -6.74210937 85.02804688 -7.54296875 85.58984375 C-12.63700549 88.5134483 -18.46251886 88.69474855 -24.16796875 87.57421875 C-30.99922116 85.6577056 -36.27979866 81.9632607 -40.31640625 76.08203125 C-46.43616144 64.7683879 -46.32788854 51.76046676 -42.90234375 39.62109375 C-40.54443069 32.77191772 -35.78010484 28.15684959 -30 24 C-24.10362827 21.39198943 -17.34736108 21.01591301 -11 22 C-7.64968395 23.62325172 -4.83378183 25.59557905 -2 28 C-0.31841854 24.33135949 0.24028871 21.50583953 0.1953125 17.48046875 C0.18564453 15.9480957 0.18564453 15.9480957 0.17578125 14.38476562 C0.15902344 13.32966797 0.14226562 12.27457031 0.125 11.1875 C0.11597656 10.11306641 0.10695313 9.03863281 0.09765625 7.93164062 C0.07415306 5.28753146 0.04129575 2.64388128 0 0 Z M0 30 C1 32 1 32 1 32 Z M-26 39 C-31.05093019 45.96680027 -30.50345981 53.68816358 -30 62 C-29.0364878 67.11810607 -26.04277111 70.71981696 -22.03125 73.8984375 C-18.39654955 75.86956351 -14.99107206 75.74550214 -11 75 C-6.63852045 73.21575836 -3.2508976 70.15111187 -1 66 C1.22121962 58.73912642 1.97423943 51.1310078 -1 44 C-3.45052947 40.44467546 -6.08368302 36.95815849 -10 35 C-16.41978608 34.29567095 -21.01180764 34.49846055 -26 39 Z M0 78 C1 80 1 80 1 80 Z " fill="#FDFEFE" transform="translate(258,54)"/>
<path d="M0 0 C7.0302664 3.99511123 11.95848804 9.4076216 14.625 17.0546875 C17.65700636 28.28972478 16.87704617 40.56698758 11.9453125 51.10546875 C7.63720488 57.45763594 2.98250868 61.68472111 -4.4921875 63.79296875 C-13.31102329 64.86843653 -20.68465154 63.09807375 -28.0546875 58.10546875 C-28.86179894 60.9299616 -29.16484551 63.39484044 -29.1171875 66.328125 C-29.10945313 67.11380859 -29.10171875 67.89949219 -29.09375 68.70898438 C-29.08085937 69.52044922 -29.06796875 70.33191406 -29.0546875 71.16796875 C-29.02914097 72.78378653 -29.00812118 74.39968384 -28.9921875 76.015625 C-28.98058594 76.72855713 -28.96898437 77.44148926 -28.95703125 78.17602539 C-29.0546875 80.10546875 -29.0546875 80.10546875 -30.0546875 83.10546875 C-34.6746875 83.10546875 -39.2946875 83.10546875 -44.0546875 83.10546875 C-44.07781062 72.3008879 -44.09560243 61.49631289 -44.10649967 50.69171238 C-44.11172857 45.67524405 -44.11882633 40.6587926 -44.13012695 35.64233398 C-44.1409556 30.80537181 -44.14696429 25.96842591 -44.14956474 21.13145256 C-44.15141903 19.2817859 -44.15503972 17.43212018 -44.16041756 15.5824604 C-44.1676277 13.00099861 -44.16867845 10.41960493 -44.16821289 7.83813477 C-44.17180817 7.06561874 -44.17540344 6.29310272 -44.17910767 5.49717712 C-44.16873966 0.21952091 -44.16873966 0.21952091 -43.0546875 -0.89453125 C-40.93460634 -1.07266479 -38.80677138 -1.16242353 -36.6796875 -1.20703125 C-35.51695312 -1.24441406 -34.35421875 -1.28179687 -33.15625 -1.3203125 C-30.0546875 -0.89453125 -30.0546875 -0.89453125 -28.140625 1.125 C-27.60308594 2.10533203 -27.60308594 2.10533203 -27.0546875 3.10546875 C-26.37664062 2.74453125 -25.69859375 2.38359375 -25 2.01171875 C-16.51761153 -2.21772702 -8.96418937 -3.86512619 0 0 Z M-30.0546875 6.10546875 C-29.0546875 8.10546875 -29.0546875 8.10546875 -29.0546875 8.10546875 Z M-25.0546875 15.10546875 C-29.8590476 21.80994554 -30.79778347 29.70559366 -29.5546875 37.73046875 C-28.22344591 42.92600885 -24.92877956 46.523761 -21.0546875 50.10546875 C-17.60318518 51.83121991 -13.8357813 51.46651069 -10.0546875 51.10546875 C-5.19626449 49.05413459 -2.26309327 45.5740691 0.0390625 40.87109375 C2.0834571 34.63216539 2.15900524 26.22331142 -0.2421875 20.04296875 C-2.558676 16.2886598 -5.05280097 13.10641202 -9.0546875 11.10546875 C-15.4146463 10.40770349 -20.21850087 10.49957672 -25.0546875 15.10546875 Z " fill="#FDFEFE" transform="translate(392.0546875,77.89453125)"/>
<path d="M0 0 C4.95 0 9.9 0 15 0 C15.33 9.57 15.66 19.14 16 29 C18.97 26.525 18.97 26.525 22 24 C27.68007325 21.39617532 35.17336269 20.83172133 41.13671875 22.65234375 C46.90975239 25.21447106 51.25701652 29.18435761 53.90071106 34.9717865 C55.96164546 40.88599717 56.46821396 46.26749961 56.51171875 52.50390625 C56.52966995 53.4677977 56.54762115 54.43168915 56.56611633 55.42478943 C56.61982853 58.47064988 56.65398881 61.51635721 56.6875 64.5625 C56.72070762 66.64129717 56.75520042 68.72007424 56.79101562 70.79882812 C56.87553221 75.8657742 56.94252865 80.93267794 57 86 C54.11584117 87.44207941 51.58278472 87.09394887 48.375 87.0625 C47.18648438 87.05347656 45.99796875 87.04445313 44.7734375 87.03515625 C43.40058594 87.01775391 43.40058594 87.01775391 42 87 C40.36642101 83.73284202 40.96535281 80.1382622 41.04296875 76.5546875 C41.06537507 74.82032417 41.08682848 73.08594831 41.10742188 71.3515625 C41.14437543 68.61944651 41.18721695 65.88797133 41.24682617 63.15625 C41.30170696 60.51813788 41.33052549 57.88073128 41.35546875 55.2421875 C41.37925095 54.4366745 41.40303314 53.6311615 41.42753601 52.80123901 C41.45332148 47.1489615 40.32169505 42.65822495 37 38 C32.73755081 35.1583672 29.00032912 35.49596683 24 36 C20.5235054 37.33142346 19.38556547 38.39155989 17.40307617 41.52001953 C15.60491907 45.97989969 15.52343345 49.79144026 15.48828125 54.5546875 C15.47033005 55.45623566 15.45237885 56.35778381 15.43388367 57.28665161 C15.3799585 60.14938768 15.34594225 63.01195871 15.3125 65.875 C15.2793112 67.82293954 15.2448201 69.77085736 15.20898438 71.71875 C15.12424228 76.47904726 15.05734641 81.23929708 15 86 C10.05 86 5.1 86 0 86 C0 57.62 0 29.24 0 0 Z " fill="#FDFEFE" transform="translate(455,54)"/>
<path d="M0 0 C6.41952137 6.60293626 6.28771302 14.06274374 6.1953125 22.74609375 C6.1924826 23.75720718 6.18965271 24.76832062 6.18673706 25.81007385 C6.17559889 29.01933952 6.15050597 32.22831958 6.125 35.4375 C6.11496198 37.62174074 6.10583757 39.80598589 6.09765625 41.99023438 C6.07568038 47.32693189 6.04119445 52.66341763 6 58 C1.05 58 -3.9 58 -9 58 C-9.66 56.68 -10.32 55.36 -11 54 C-11.763125 54.61875 -12.52625 55.2375 -13.3125 55.875 C-19.16530405 59.73096502 -26.34801171 60.52150375 -33.1875 59.5625 C-38.57130668 58.24016152 -42.51166356 55.26637227 -46 51 C-48.62078964 45.77549426 -48.53121911 40.72536154 -48 35 C-46.34105334 30.02316003 -43.52882647 26.6347831 -39 24 C-29.6420415 19.93645406 -19.02352376 20.30122507 -9 20 C-9.31954043 16.52418272 -9.80957733 13.29085734 -11 10 C-15.2729652 7.00892436 -19.10668183 6.47838773 -24.13671875 7.34765625 C-27.90127544 8.6656457 -30.25827981 11.51655962 -32 15 C-36.62 15 -41.24 15 -46 15 C-44.94715234 7.51308328 -42.79207414 2.97299295 -37 -2 C-26.23813977 -8.60334948 -10.01749944 -7.66044075 0 0 Z M-32.5625 35.25 C-34.21555794 37.93597649 -34.21555794 37.93597649 -34.125 41.0625 C-32.58012089 45.09635102 -30.85991414 46.14152282 -27 48 C-21.14797737 48.86696632 -16.77689029 47.28142239 -12 44 C-8.36297347 39.90834515 -8.73470583 36.21745205 -9 31 C-21.59976647 30.16134109 -21.59976647 30.16134109 -32.5625 35.25 Z " fill="#D2D6DD" transform="translate(568,82)"/>
<path d="M0 0 C0.60457031 0.31710938 1.20914063 0.63421875 1.83203125 0.9609375 C8.33505552 4.9562596 11.56708656 11.48284882 14.375 18.375 C15.26063952 23.51170921 15 28.78750167 15 34 C0.81 34.33 -13.38 34.66 -28 35 C-27.0538131 40.67712142 -26.57379964 42.76786885 -23 47 C-18.14457887 49.95133441 -14.56098079 50.24524611 -9.11328125 49.51953125 C-6.8156681 48.95468366 -5.01854229 48.23548709 -3 47 C-2.566875 46.154375 -2.13375 45.30875 -1.6875 44.4375 C0 42 0 42 3.25 41.125 C6.98380329 41.00053989 10.33116542 41.32613242 14 42 C12.86115491 48.49141702 11.06863924 52.66900057 6 57 C-2.25393264 62.77626027 -11.89287399 64.08895567 -21.75 62.4375 C-29.51750523 60.27114992 -35.62060007 55.55741938 -39.77734375 48.6796875 C-44.77480049 37.7267951 -44.96460768 26.62520298 -41.375 15.3125 C-38.2698801 7.49385276 -33.5671885 2.17613653 -25.89453125 -1.30859375 C-17.50867861 -4.3689977 -7.92421159 -4.22853807 0 0 Z M-25.25 14.3125 C-27.40616376 17.37624874 -27.40616376 17.37624874 -29 23 C-19.43 23 -9.86 23 0 23 C-1.0271892 16.83686481 -1.75433819 15.24566181 -6 11 C-12.98931878 7.05730736 -19.77050861 8.68080052 -25.25 14.3125 Z " fill="#FDFEFE" transform="translate(325,79)"/>
<path d="M0 0 C4.62 0 9.24 0 14 0 C14 5.28 14 10.56 14 16 C17.96 16 21.92 16 26 16 C27.1671568 19.50147041 27.13357453 22.32670036 27 26 C26.67 26.66 26.34 27.32 26 28 C22.04 28 18.08 28 14 28 C14.33 28.99 14.66 29.98 15 31 C15.07224435 33.28671435 15.08382139 35.57552533 15.0625 37.86328125 C15.05871338 38.53288376 15.05492676 39.20248627 15.05102539 39.89237976 C15.03472519 42.75083976 15.00669321 45.6091555 14.97949219 48.4675293 C14.96130159 50.5577731 14.94927019 52.64799296 14.9375 54.73828125 C14.92589844 55.98649658 14.91429687 57.23471191 14.90234375 58.52075195 C14.99387376 61.7817375 15.37697671 64.80240654 16 68 C19.3 68.33 22.6 68.66 26 69 C27.125 77.75 27.125 77.75 26 80 C19.83478604 82.05507132 14.04777619 81.23621464 8.05078125 79.05078125 C4.63003248 77.29805474 3.09828098 75.21299275 1 72 C0.11811183 69.24041632 -0.12266269 66.7614115 -0.11352539 63.87402344 C-0.11344986 63.07349548 -0.11337433 62.27296753 -0.11329651 61.44818115 C-0.10813522 60.59387512 -0.10297394 59.73956909 -0.09765625 58.859375 C-0.0962413 57.97719299 -0.09482635 57.09501099 -0.09336853 56.18609619 C-0.08778001 53.37402935 -0.07522961 50.5620427 -0.0625 47.75 C-0.05748352 45.84114698 -0.05292087 43.93229272 -0.04882812 42.0234375 C-0.03781434 37.34892753 -0.02055758 32.67447735 0 28 C-2.97 28 -5.94 28 -9 28 C-10.31157516 25.37684968 -9.89649988 23.76966564 -9.5625 20.875 C-9.40974609 19.50988281 -9.40974609 19.50988281 -9.25390625 18.1171875 C-9.17011719 17.41851562 -9.08632813 16.71984375 -9 16 C-6.36 15.67 -3.72 15.34 -1 15 C-0.67 10.05 -0.34 5.1 0 0 Z " fill="#FDFEFE" transform="translate(420,61)"/>
<path d="M0 0 C2.14576637 -0.02685938 4.29162645 -0.04633088 6.4375 -0.0625 C7.63246094 -0.07410156 8.82742188 -0.08570312 10.05859375 -0.09765625 C13 0 13 0 14 1 C14.09396057 2.93306498 14.11743517 4.86958838 14.11352539 6.80493164 C14.11344986 8.04614273 14.11337433 9.28735382 14.11329651 10.56617737 C14.10818911 11.9308374 14.1029731 13.29549702 14.09765625 14.66015625 C14.095792 16.04878183 14.09436813 17.43740807 14.09336853 18.82603455 C14.08954387 22.48721115 14.07971403 26.1483483 14.06866455 29.80950928 C14.05844932 33.54292263 14.05387067 37.27634234 14.04882812 41.00976562 C14.03809171 48.33986177 14.02101591 55.66992536 14 63 C11.68756208 63.02685412 9.3750373 63.04632841 7.0625 63.0625 C5.77472656 63.07410156 4.48695313 63.08570313 3.16015625 63.09765625 C0 63 0 63 -1 62 C-1.09910327 60.13893777 -1.12799259 58.2740989 -1.12939453 56.41040039 C-1.13254669 55.21568619 -1.13569885 54.02097198 -1.13894653 52.79005432 C-1.1369223 51.48906296 -1.13489807 50.18807159 -1.1328125 48.84765625 C-1.13348567 47.50866173 -1.13445581 46.16966732 -1.13571167 44.83067322 C-1.13718853 42.02032308 -1.13503483 39.21000466 -1.13037109 36.3996582 C-1.12467928 32.79359181 -1.12794939 29.18759993 -1.13394356 25.58153629 C-1.13755419 22.81493059 -1.13640817 20.0483426 -1.13381577 17.28173637 C-1.13282203 15.30412116 -1.13586474 13.32650527 -1.13894653 11.34889221 C-1.13579437 10.15102585 -1.13264221 8.95315948 -1.12939453 7.71899414 C-1.12859894 6.66055801 -1.12780334 5.60212189 -1.12698364 4.51161194 C-1 2 -1 2 0 0 Z " fill="#D1D5DA" transform="translate(586,77)"/>
<path d="M0 0 C2.14576637 -0.02685938 4.29162645 -0.04633088 6.4375 -0.0625 C7.63246094 -0.07410156 8.82742188 -0.08570312 10.05859375 -0.09765625 C13 0 13 0 14 1 C14.09396057 2.93306498 14.11743517 4.86958838 14.11352539 6.80493164 C14.11344986 8.04614273 14.11337433 9.28735382 14.11329651 10.56617737 C14.10818911 11.9308374 14.1029731 13.29549702 14.09765625 14.66015625 C14.095792 16.04878183 14.09436813 17.43740807 14.09336853 18.82603455 C14.08954387 22.48721115 14.07971403 26.1483483 14.06866455 29.80950928 C14.05844932 33.54292263 14.05387067 37.27634234 14.04882812 41.00976562 C14.03809171 48.33986177 14.02101591 55.66992536 14 63 C11.68756208 63.02685412 9.3750373 63.04632841 7.0625 63.0625 C5.77472656 63.07410156 4.48695313 63.08570313 3.16015625 63.09765625 C0 63 0 63 -1 62 C-1.0167793 59.99836123 -0.96262541 57.99605136 -0.87890625 55.99609375 C-0.83056641 54.78115234 -0.78222656 53.56621094 -0.73242188 52.31445312 C-0.67634766 51.03505859 -0.62027344 49.75566406 -0.5625 48.4375 C-0.48418945 46.51260742 -0.48418945 46.51260742 -0.40429688 44.54882812 C-0.2741304 41.36566609 -0.13914999 38.18277996 0 35 C0.33 35 0.66 35 1 35 C1 43.91 1 52.82 1 62 C4.63 62 8.26 62 12 62 C12 42.2 12 22.4 12 2 C5.5797509 1.63106761 5.5797509 1.63106761 2 3 C1.67 5.31 1.34 7.62 1 10 C-1 8 -1 8 -1.1875 5 C-1 2 -1 2 0 0 Z " fill="#DBE1E9" transform="translate(586,77)"/>
<path d="M0 0 C2.59191186 1.69814915 2.96408796 2.8820033 3.875 5.875 C4.0235372 9.58842999 3.18476995 11.05896353 1 14 C0 15 0 15 -3.8125 15.25 C-6.56533701 15.2055994 -7.91850957 15.03970047 -10.4375 13.8125 C-12.44619548 11.48241325 -12.85384384 10.06927932 -13 7 C-12.20817165 3.67432093 -11.38570366 2.32141972 -8.75 0.125 C-5.30998383 -1.28227934 -3.53068164 -1.07455528 0 0 Z " fill="#D5D9E0" transform="translate(597,54)"/>
<path d="M0 0 C-3.42269478 1.14089826 -4.54166922 0.72089149 -8 0 C-19.42708704 -0.70389057 -19.42708704 -0.70389057 -30 3 C-31.6642135 3.67276716 -33.32986582 4.34206835 -35 5 C-26.24604774 -5.79654112 -11.83247668 -4.22948103 0 0 Z " fill="#D7DDE7" transform="translate(563,79)"/>
<path d="M0 0 C4.29 0 8.58 0 13 0 C13.33 1.32 13.66 2.64 14 4 C13.505 3.649375 13.01 3.29875 12.5 2.9375 C8.77302397 1.53988399 5.90197152 2.34967141 2 3 C1.67 5.31 1.34 7.62 1 10 C-1 8 -1 8 -1.1875 5 C-1 2 -1 2 0 0 Z " fill="#E2E6F0" transform="translate(586,77)"/>
</svg>
